<svg width="20" height="19" viewBox="0 0 20 19" fill="none" xmlns="http://www.w3.org/2000/svg">
<path d="M18.848 13.2002C17.8643 15.5369 16.1926 17.2363 13.88 18.2412C12.7241 18.7435 11.5234 19 10.2583 19C8.99342 19 7.79139 18.7459 6.63681 18.2412C4.34338 17.239 2.65407 15.5406 1.6686 13.2002C1.17479 12.0276 0.934082 10.7992 0.934082 9.51044C0.934082 8.22145 1.17479 6.98283 1.6686 5.81002C2.65407 3.46956 4.34335 1.76104 6.63681 0.758554C7.79139 0.253876 8.99339 0 10.2583 0C11.5234 0 12.7241 0.256548 13.88 0.758554C16.1927 1.7635 17.8643 3.47354 18.848 5.81002C19.3434 6.98658 19.5928 8.22145 19.5928 9.51044C19.5928 10.7992 19.3434 12.0236 18.848 13.2002ZM7.15697 17.233C6.35105 16.1937 5.75952 14.8736 5.38192 13.2729H2.94376C3.84148 15.0504 5.35147 16.4744 7.15697 17.233ZM2.06644 9.51044C2.06644 10.4147 2.20921 11.2877 2.48474 12.1296H5.15753C5.02497 11.2462 4.96363 10.373 4.96363 9.51044C4.96363 8.65807 5.025 7.79524 5.15753 6.91185H2.46428C2.199 7.7538 2.06644 8.62679 2.06644 9.51044ZM2.94376 5.76855H5.38195C5.75955 4.13679 6.35111 2.79593 7.157 1.76682C5.32076 2.54647 3.81081 3.97045 2.94376 5.76855ZM9.68702 1.24726C9.02387 1.44464 8.40164 1.94354 7.8406 2.75421C7.27953 3.56511 6.85102 4.57316 6.55523 5.76855H9.68702V1.24726ZM9.68702 6.91185H6.30013C6.16739 7.83696 6.09598 8.69976 6.09598 9.51044C6.09598 10.3834 6.16736 11.2566 6.32059 12.1296H9.68699V6.91185H9.68702ZM9.68702 13.2729H6.55523C6.87145 14.4579 7.30237 15.4539 7.86106 16.256C8.42451 17.0651 9.0239 17.5656 9.68705 17.7527V13.2729H9.68702ZM17.5831 13.2729H15.1449C14.7675 14.8736 14.1758 16.1937 13.3699 17.2329C15.1756 16.4744 16.6854 15.0504 17.5831 13.2729ZM10.8398 17.7527C11.503 17.5656 12.1023 17.0651 12.6658 16.256C13.2247 15.4539 13.6554 14.4579 13.9716 13.2729H10.8398V17.7527ZM10.8398 12.1296H14.2062C14.3594 11.2566 14.4308 10.3834 14.4308 9.51044C14.4308 8.69973 14.3594 7.83696 14.2267 6.91185H10.8398V12.1296ZM10.8398 1.24726V5.76855H13.9716C13.6657 4.57316 13.2315 3.56912 12.676 2.75421C12.1193 1.93732 11.5132 1.4342 10.8398 1.24726ZM13.3699 1.76682C14.1758 2.79593 14.7676 4.13679 15.1449 5.76855H17.5832C16.7161 3.97045 15.2061 2.54647 13.3699 1.76682ZM18.0626 6.91185H15.3693C15.5021 7.79527 15.5632 8.65807 15.5632 9.51044C15.5632 10.373 15.5021 11.2462 15.3693 12.1296H18.0421C18.3176 11.2877 18.4604 10.4147 18.4604 9.51044C18.4604 8.62679 18.3279 7.7538 18.0626 6.91185Z" fill="black"/>
</svg>
