<svg width="113" height="43" viewBox="0 0 113 43" fill="none" xmlns="http://www.w3.org/2000/svg">
<path d="M83.6819 13.3769L112.955 0.248077L112.869 0H100.975L81.9952 9.90812C77.1033 12.468 75.6679 12.6327 74.1494 9.66004L71.7876 4.95299H62.5938L44.6256 16.7602C37.9618 21.1357 35.5999 20.8064 36.4433 16.7602L38.9734 4.95299H30.5376L29.4408 19.2367C29.0192 25.2654 27.4155 27.6585 20.6665 31.2919L0 42.5238L0.0852091 42.7719H10.8827L61.8334 11.0651C64.1953 9.57877 65.4603 9.3307 66.5571 11.0651L67.4856 12.5514C69.1723 15.276 67.7391 16.7623 63.6053 18.5801L43.1071 27.6627L43.1923 27.9108H53.2317L64.6191 22.2949C69.6814 19.8184 71.4511 19.3222 72.9696 22.2949L75.7531 27.9108H84.6105L79.6334 19.6537C77.9467 16.9291 79.4652 15.2781 83.6819 13.3791V13.3769Z" fill="black"/>
</svg>
